<?xml version="1.0" standalone="no"?>
<!DOCTYPE svg PUBLIC "-//W3C//DTD SVG 20010904//EN"
 "http://www.w3.org/TR/2001/REC-SVG-20010904/DTD/svg10.dtd">
<svg version="1.0" xmlns="http://www.w3.org/2000/svg"
 width="75.000000pt" height="175.000000pt" viewBox="-40 -10 225.000000 325.000000"
 preserveAspectRatio="xMidYMid meet">
<metadata>
Created by potrace 1.10, written by Peter Selinger 2001-2011
</metadata>
<g transform="translate(0.000000,300.000000) scale(0.100000,-0.100000)"
fill="#000000" stroke="none">
<path d="M51 2881 c-18 -18 -19 -35 -19 -204 0 -165 2 -187 17 -201 16 -15 86
-17 686 -16 367 0 671 3 676 6 5 3 9 -3 10 -13 0 -10 3 -13 6 -5 2 6 15 12 28
12 13 0 31 7 40 16 14 15 16 41 13 210 -2 106 -7 196 -11 201 -5 4 -328 9
-718 10 -687 3 -710 2 -728 -16z m1437 -206 l2 -195 -717 0 -718 0 0 198 0
197 715 -2 715 -3 3 -195z"/>
<path d="M550 1876 l0 -126 34 0 34 0 -6 45 c-4 38 -2 45 12 45 11 0 25 -17
37 -45 18 -41 23 -45 54 -45 19 0 35 2 35 6 0 3 -10 22 -22 44 -22 38 -22 39
-3 60 26 29 25 84 -3 113 -18 17 -36 22 -97 25 l-75 4 0 -126z m114 61 c29
-21 16 -51 -22 -55 -31 -3 -32 -2 -32 32 0 40 20 48 54 23z"/>
<path d="M811 1936 l41 -65 -42 -60 -41 -61 40 0 c36 0 41 3 58 40 10 22 21
40 24 40 3 0 13 -18 23 -40 16 -37 20 -40 57 -40 l39 0 -26 43 c-15 23 -33 50
-42 59 -13 16 -11 24 26 83 l41 65 -39 0 c-35 0 -40 -3 -56 -40 -10 -22 -20
-40 -23 -40 -3 0 -14 18 -23 40 -15 37 -19 40 -57 40 l-40 0 40 -64z m89 -61
c0 -14 -4 -25 -9 -25 -10 0 -21 36 -13 44 12 13 22 5 22 -19z"/>
<path d="M419 1287 c-29 -16 -54 -40 -74 -72 l-30 -48 -3 -262 c-2 -161 1
-284 7 -320 14 -74 51 -128 105 -155 40 -19 61 -20 342 -20 270 0 303 2 340
19 49 22 88 70 103 126 14 52 15 567 0 618 -13 47 -63 106 -106 123 -25 11
-104 14 -336 14 -299 0 -305 0 -348 -23z m179 -3 c12 -4 22 -10 22 -15 0 -5
-3 -8 -7 -7 -20 6 -93 -42 -144 -93 -52 -52 -72 -79 -98 -136 -20 -43 -31 -24
-31 52 0 84 8 104 63 156 30 28 46 36 79 37 23 1 44 4 46 7 7 7 42 6 70 -1z
m489 -13 c45 -24 73 -53 96 -100 20 -40 21 -44 6 -35 -8 5 -8 1 0 -14 12 -22
15 -91 5 -116 -5 -12 -12 -5 -27 26 -12 24 -25 48 -29 53 -5 6 -21 27 -38 48
-45 60 -141 130 -179 131 -8 1 -16 6 -18 12 -3 8 21 12 72 13 57 1 84 -3 112
-18z m-251 -22 c123 -23 238 -112 293 -229 23 -48 26 -68 26 -160 0 -93 -3
-112 -27 -162 -53 -114 -166 -202 -291 -228 -189 -38 -387 84 -447 277 -25 81
-25 144 -1 222 53 171 188 276 372 290 8 0 42 -4 75 -10z m-459 -575 c43 -89
165 -202 236 -219 35 -9 45 -25 15 -26 -66 -3 -154 4 -182 16 -57 24 -104 91
-107 155 -4 58 0 130 6 130 2 0 17 -25 32 -56z m818 -100 c-6 -43 -69 -129
-86 -118 -5 3 -9 1 -9 -5 0 -18 -158 -36 -195 -21 -18 7 -18 9 10 21 17 7 54
28 83 46 29 18 58 33 64 33 6 0 9 2 6 5 -3 3 7 19 23 36 15 16 34 43 41 59 7
17 16 30 20 30 5 0 8 6 8 14 0 8 8 22 18 32 16 17 17 15 20 -37 2 -30 1 -73
-3 -95z"/>
<path d="M727 1193 c-7 -13 5 -73 14 -73 5 0 9 18 9 40 0 36 -12 52 -23 33z"/>
<path d="M765 1190 c-3 -6 4 -10 16 -10 l22 0 -21 -23 c-28 -30 -28 -37 4 -37
22 0 25 -3 20 -22 -3 -13 -14 -66 -23 -118 -9 -52 -21 -96 -25 -98 -4 -2 -8
-9 -8 -15 -1 -7 -52 -68 -115 -137 -62 -68 -111 -129 -108 -134 4 -5 20 6 36
25 121 136 193 210 212 215 11 3 65 -10 118 -30 53 -19 99 -30 102 -26 7 11 5
12 -107 49 -54 18 -100 36 -103 40 -2 4 4 50 15 102 18 91 35 223 24 187 -3
-10 -13 -18 -22 -18 -12 0 -13 3 -4 12 19 19 15 48 -7 48 -11 0 -23 -4 -26
-10z"/>
<path d="M575 1140 c-3 -5 -1 -10 4 -10 6 0 11 -11 11 -25 0 -14 5 -25 10 -25
6 0 10 16 10 35 0 34 -20 49 -35 25z"/>
<path d="M620 1140 c0 -5 4 -10 9 -10 6 0 12 -15 14 -32 3 -29 4 -27 5 10 2
31 -2 42 -13 42 -8 0 -15 -4 -15 -10z"/>
<path d="M914 1134 c3 -9 6 -24 6 -35 0 -10 5 -19 10 -19 6 0 10 16 10 35 0
25 -4 35 -16 35 -11 0 -14 -5 -10 -16z"/>
<path d="M464 1029 c-3 -6 -1 -15 6 -19 7 -4 10 -15 7 -24 -3 -8 -2 -18 3 -21
6 -4 10 11 10 34 0 40 -12 53 -26 30z"/>
<path d="M505 1021 c-8 -27 12 -63 33 -59 12 2 17 13 17 38 0 28 -4 36 -22 38
-14 2 -23 -3 -28 -17z"/>
<path d="M1007 1034 c-11 -12 3 -23 21 -17 16 6 16 5 0 -14 -25 -28 -22 -43 7
-43 14 0 25 5 25 10 0 6 -5 10 -10 10 -7 0 -7 7 0 20 6 11 8 25 5 30 -7 11
-38 13 -48 4z"/>
<path d="M442 884 c-5 -9 -7 -27 -4 -40 7 -37 46 -29 50 10 5 40 -28 62 -46
30z"/>
<path d="M1052 893 c-19 -7 -4 -23 16 -16 15 6 15 5 3 -10 -11 -14 -11 -17 0
-18 8 -1 3 -4 -11 -9 -22 -6 -23 -8 -7 -15 26 -11 46 1 43 27 -4 42 -16 53
-44 41z"/>
<path d="M477 734 c-4 -4 -7 -22 -7 -41 0 -29 3 -33 26 -33 23 0 25 3 22 37
-3 36 -23 54 -41 37z"/>
<path d="M1017 710 c-18 -30 -18 -30 5 -39 31 -12 38 -6 35 31 -3 42 -19 45
-40 8z"/>
<path d="M590 620 c0 -5 5 -10 11 -10 6 0 9 -6 6 -12 -3 -7 -8 -21 -12 -30
-12 -30 13 -20 30 12 21 40 19 50 -10 50 -14 0 -25 -4 -25 -10z"/>
<path d="M897 623 c-14 -13 -6 -33 13 -33 11 0 20 -5 20 -11 0 -6 -9 -8 -21
-4 -15 5 -20 3 -17 -6 3 -8 14 -15 25 -17 28 -4 40 28 17 45 -10 7 -12 13 -6
13 7 0 12 5 12 10 0 11 -33 14 -43 3z"/>
<path d="M751 576 c-29 -35 12 -88 43 -56 8 9 5 17 -14 32 -17 15 -19 19 -7
15 12 -5 17 -3 15 5 -6 18 -24 20 -37 4z"/>
<path d="M1390 719 c0 -246 -4 -286 -41 -364 -34 -74 -147 -176 -236 -212 -24
-10 -43 -21 -43 -25 0 -5 -10 -8 -22 -8 -13 0 -43 -8 -68 -17 -71 -27 -351
-24 -445 4 -105 31 -166 61 -245 123 -123 96 -155 182 -155 422 0 38 -3 68 -7
68 -13 0 -9 -247 4 -297 43 -173 226 -307 473 -349 350 -59 689 80 780 321 18
45 19 75 16 310 -1 143 -5 262 -7 264 -2 2 -4 -106 -4 -240z"/>
</g>
</svg>
